<svg xmlns="http://www.w3.org/2000/svg" viewBox="0 0 560.01 560.01"><defs><style>.a{fill:none;}.b{fill:#991b1b;}</style></defs><path class="a" d="M420.34,485.63a62.33,62.33,0,0,0-8.59-32.07H142a80.73,80.73,0,0,1,6.57,32.07h0a77.82,77.82,0,0,1-23.86,56.88H371.32C398.35,542.51,420.34,517,420.34,485.63Z"/><path class="b" d="M362.42,312.56v98.7a8.85,8.85,0,0,0,8.91,8.75h0a8.85,8.85,0,0,0,8.92-8.75V298.36c-2.42,2-4.82,4-7.18,5.88Q367.69,308.58,362.42,312.56Z"/><path class="b" d="M300.68,361.89l.07,1.08h35.93a8.47,8.47,0,0,0,8.3-9.74l0-.27a8.45,8.45,0,0,0-8.35-7.49l-36,.08"/><path class="b" d="M190.86,345.47H59.39a8.75,8.75,0,1,0,0,17.5H185.48l1.54-5Z"/><path class="b" d="M342.81,143c-52.49-13.54-114.95-36.76-140.9-51.13C159.67,68.52,116,44.36,32.65,42.75V26.25a8.85,8.85,0,0,1,8.91-8.75H353.49a8.85,8.85,0,0,1,8.92,8.75v95.48c1.87-2,3.74-3.93,5.61-5.86q6.11-6.32,12.21-12.36V26.25A26.53,26.53,0,0,0,353.49,0H41.56A26.55,26.55,0,0,0,14.82,26.25V485.63c0,41,30,74.38,66.85,74.38H371.32c36.86,0,66.85-33.37,66.85-74.38a79.1,79.1,0,0,0-14.12-45.69l0,0,0-.08c-.14-.18-.3-.33-.45-.5a7.89,7.89,0,0,0-.65-.76,7.34,7.34,0,0,0-.69-.56c-.22-.17-.43-.36-.66-.51s-.52-.28-.77-.41-.51-.27-.77-.38a7.58,7.58,0,0,0-.81-.25c-.29-.08-.56-.18-.85-.24h0a7.32,7.32,0,0,0-1-.1c-.22,0-.42-.07-.65-.07H126.94a9.34,9.34,0,0,0-1.4.13l-.36,0c-.16,0-.31.11-.47.15a8.32,8.32,0,0,0-1.2.37l-.12.06a8.88,8.88,0,0,0-1.42.77l0,0c-.17.12-.31.27-.48.4a10.41,10.41,0,0,0-.81.68q-.3.33-.57.69a7.4,7.4,0,0,0-.51.63h0a7.37,7.37,0,0,0-.43.78c-.13.25-.27.48-.38.73s-.19.56-.27.85-.17.51-.22.78h0a8.82,8.82,0,0,0-.12,1.14c0,.18,0,.34,0,.52v0a8.84,8.84,0,0,0,.16,1.54c0,.06,0,.13,0,.19h0c.08.28.16.56.26.84s.15.55.26.81c0,.07.09.14.12.22h0a8.22,8.22,0,0,0,.73,1.29l0,.05a61.84,61.84,0,0,1,11,35.84c0,31.36-22,56.88-49,56.88s-49-25.52-49-56.88V60.25c78.59,1.55,118.43,23.6,160.5,46.9,24.12,13.36,86.21,36.33,137,50.48q2.65-3.12,5.42-6.32Q339.11,147.2,342.81,143ZM148.51,485.63h0A80.73,80.73,0,0,0,142,453.56h269.8a62.33,62.33,0,0,1,8.59,32.07c0,31.36-22,56.88-49,56.88H124.65A77.82,77.82,0,0,0,148.51,485.63Z"/><path class="b" d="M264,404.88l-4.44,2h77.12a8.47,8.47,0,0,0,8.3-9.74l0-.27a8.45,8.45,0,0,0-8.35-7.49H298.3l-6.7,3Z"/><path class="b" d="M177.36,389.39h-118a8.75,8.75,0,1,0,0,17.5H172l2.6-8.49Z"/><path class="b" d="M201,312.55l3.28-10.66H59.39a8.75,8.75,0,1,0,0,17.5H198.88l1.53-5Z"/><path class="b" d="M283.19,219q1.55-2.3,3.14-4.6H59.38a8.75,8.75,0,1,0,0,17.5h215.4q2.93-4.63,6.07-9.39Q282,220.75,283.19,219Z"/><path class="b" d="M319.31,170.63H59.39a8.75,8.75,0,1,0,0,17.5H305.46q4-5.28,8.27-10.59C315.55,175.25,317.42,172.94,319.31,170.63Z"/><path class="b" d="M59.4,258.13a8.75,8.75,0,1,0,0,17.5h192q3.4-8.24,8.23-17.5Z"/><path class="b" d="M538.33,32.27h0c-12.41-11.36-35.84-4.87-71.61,19.87-26.37,18.23-56.55,44.63-86.49,75.55q-8.24,8.51-16.41,17.44l-1.41,1.55-.81.88q-6.75,7.44-13.22,14.89-3.54,4.1-7,8.18Q334,179.4,327,188.13c-11,13.8-21,27.37-29.74,40.36-.77,1.14-1.52,2.27-2.27,3.4-5.47,8.25-10.42,16.26-14.78,23.93-10.66,18.77-17.12,34.11-19.4,46.19l-11.92,13.53-29.43,1.86-2.26.14-.57,1.85-8,26.08L203.27,363l-8.12,26.42-4.31,14,4,3.49,7.94,7,15.52-7L257,389.39l27.6-12.47L283.72,363l-1.11-17.5v-.23l11.24-12.76c11.88-3.31,26.66-11.1,44.53-23.45,7.72-5.34,15.77-11.39,24.05-18,5.84-4.69,11.8-9.7,17.83-15a778.57,778.57,0,0,0,61-60c35.15-38.39,64.83-77.7,83.57-110.68C546.32,67.53,550.74,43.63,538.33,32.27ZM267.81,363l.25,4-39.81,18,19.38-22L250,360.3h0a7.94,7.94,0,0,0-11.92-10.49L226.46,363l-10.12,11.49L219.87,363l5.38-17.5,3.92-12.77L256.48,331l6.3-7.15a19.54,19.54,0,0,0,4,5.08,19.77,19.77,0,0,0,5.83,3.68l-6.24,7.09.37,5.8ZM510.06,97c-18.13,31.9-47,70.12-81.33,107.61a769.18,769.18,0,0,1-57.89,57.12q-4.23,3.72-8.42,7.27c-11.71,9.93-23.05,18.72-33.72,26.09-30.61,21.17-47.2,24.31-50.47,21.32s-1.59-19.79,16.8-52.15c16.5-29,41.92-63.32,72.24-97.51q4.47-5.05,9.09-10.09c1.61-1.76,3.22-3.5,4.84-5.24C414,116.14,447.62,86,476.38,66.12,500,49.77,515.32,44.18,522.55,43.86c2.13-.1,3.56.27,4.3.94C530.11,47.79,528.44,64.59,510.06,97Z"/></svg>